<svg width="183" height="183" viewBox="0 0 183 183" fill="none" xmlns="http://www.w3.org/2000/svg">
<rect width="183" height="183" fill="url(#paint0_linear)"/>
<path fill-rule="evenodd" clip-rule="evenodd" d="M90.3907 41.8752C91.4283 41.4861 92.5717 41.4861 93.6093 41.8752L130.276 55.6252C132.065 56.296 133.25 58.0061 133.25 59.9167V92C133.25 107.796 122.792 120.418 113.351 128.678C108.535 132.893 103.74 136.187 100.158 138.426C98.3627 139.548 96.8598 140.413 95.7953 141.002C95.2628 141.297 94.839 141.523 94.5423 141.679C94.3939 141.757 94.2771 141.817 94.1943 141.859L94.0958 141.91L94.0661 141.925L94.0562 141.93C94.0547 141.93 94.0497 141.933 92 137.833C89.9503 141.933 89.9489 141.932 89.9474 141.931L89.9339 141.925L89.9042 141.91L89.8057 141.859C89.7229 141.817 89.6061 141.757 89.4577 141.679C89.161 141.523 88.7372 141.297 88.2047 141.002C87.1402 140.413 85.6373 139.548 83.8417 138.426C80.26 136.187 75.4651 132.893 70.6485 128.678C61.208 120.418 50.75 107.796 50.75 92V59.9167C50.75 58.0061 51.9351 56.296 53.724 55.6252L90.3907 41.8752ZM92 137.833L89.9474 141.931C91.2378 142.577 92.7594 142.578 94.0497 141.933L92 137.833ZM92 132.621C92.8783 132.123 94.0016 131.464 95.3 130.652C98.5933 128.594 102.965 125.586 107.315 121.78C116.208 113.999 124.083 103.704 124.083 92V63.0929L92 51.0617L59.9167 63.0929V92C59.9167 103.704 67.792 113.999 76.6848 121.78C81.0349 125.586 85.4067 128.594 88.7 130.652C89.9984 131.464 91.1217 132.123 92 132.621Z" fill="url(#paint1_linear)"/>
<path fill-rule="evenodd" clip-rule="evenodd" d="M95.0294 68.3458C95.9117 68.7288 96.4359 69.6476 96.3166 70.6021L94.4544 85.5H111.5C112.341 85.5 113.106 85.9863 113.462 86.7477C113.819 87.509 113.703 88.4079 113.164 89.0537L91.4978 115.054C90.8821 115.793 89.8529 116.037 88.9706 115.654C88.0883 115.271 87.5641 114.352 87.6834 113.398L89.5456 98.5H72.5C71.6593 98.5 70.8945 98.0137 70.5379 97.2523C70.1813 96.491 70.2973 95.5921 70.8355 94.9463L92.5022 68.9463C93.118 68.2073 94.1471 67.9628 95.0294 68.3458ZM77.1259 94.1667H92C92.6215 94.1667 93.213 94.4335 93.6243 94.8994C94.0356 95.3653 94.227 95.9854 94.1499 96.6021L92.8999 106.602L106.874 89.8333H92C91.3785 89.8333 90.787 89.5665 90.3757 89.1006C89.9644 88.6347 89.773 88.0146 89.8501 87.3979L91.1001 77.3976L77.1259 94.1667Z" fill="url(#paint2_linear)"/>
<defs>
<linearGradient id="paint0_linear" x1="91.5" y1="0" x2="91.5" y2="183" gradientUnits="userSpaceOnUse">
<stop stop-color="#00FFEF"/>
<stop offset="0.526042" stop-color="white"/>
</linearGradient>
<linearGradient id="paint1_linear" x1="92" y1="41.5833" x2="92" y2="142.416" gradientUnits="userSpaceOnUse">
<stop offset="0.140625" stop-color="#0A192F"/>
<stop offset="1" stop-color="#3EFFF3"/>
</linearGradient>
<linearGradient id="paint2_linear" x1="92" y1="68.1665" x2="92" y2="115.833" gradientUnits="userSpaceOnUse">
<stop offset="0.140625" stop-color="#0A192F"/>
<stop offset="1" stop-color="#3EFFF3"/>
</linearGradient>
</defs>
</svg>
