<svg width="174" height="174" viewBox="0 0 174 174" fill="none" xmlns="http://www.w3.org/2000/svg">
<rect width="174" height="174" rx="16" fill="white"/>
<path fill-rule="evenodd" clip-rule="evenodd" d="M85.3907 36.8751C86.4283 36.486 87.5717 36.486 88.6093 36.8751L125.276 50.6251C127.065 51.296 128.25 53.0061 128.25 54.9166V87C128.25 102.796 117.792 115.418 108.351 123.678C103.535 127.893 98.74 131.187 95.1583 133.426C93.3627 134.548 91.8598 135.412 90.7953 136.002C90.2628 136.297 89.839 136.523 89.5423 136.679C89.3939 136.757 89.2771 136.817 89.1943 136.859L89.0958 136.91L89.0661 136.925L89.0562 136.93C89.0547 136.93 89.0497 136.933 87 132.833C84.9503 136.933 84.9489 136.932 84.9474 136.931L84.9339 136.925L84.9042 136.91L84.8057 136.859C84.7229 136.817 84.6061 136.757 84.4577 136.679C84.161 136.523 83.7372 136.297 83.2047 136.002C82.1402 135.412 80.6373 134.548 78.8417 133.426C75.26 131.187 70.4651 127.893 65.6485 123.678C56.208 115.418 45.75 102.796 45.75 87V54.9166C45.75 53.0061 46.9351 51.296 48.724 50.6251L85.3907 36.8751ZM87 132.833L84.9474 136.931C86.2378 137.577 87.7594 137.578 89.0497 136.933L87 132.833ZM87 127.621C87.8783 127.123 89.0016 126.464 90.3 125.652C93.5933 123.594 97.9651 120.586 102.315 116.78C111.208 108.999 119.083 98.7038 119.083 87V58.0929L87 46.0616L54.9167 58.0929V87C54.9167 98.7038 62.792 108.999 71.6848 116.78C76.0349 120.586 80.4067 123.594 83.7 125.652C84.9984 126.464 86.1217 127.123 87 127.621Z" fill="url(#paint0_linear)"/>
<path fill-rule="evenodd" clip-rule="evenodd" d="M90.0295 63.3459C90.9118 63.7289 91.436 64.6477 91.3167 65.6021L89.4544 80.5H106.5C107.341 80.5 108.106 80.9863 108.462 81.7477C108.819 82.509 108.703 83.4079 108.165 84.0538L86.4979 110.054C85.8821 110.793 84.8529 111.037 83.9706 110.654C83.0883 110.271 82.5642 109.352 82.6835 108.398L84.5457 93.5H67.5001C66.6594 93.5 65.8945 93.0137 65.538 92.2524C65.1814 91.491 65.2974 90.5921 65.8356 89.9463L87.5023 63.9463C88.118 63.2074 89.1472 62.9629 90.0295 63.3459ZM72.126 89.1667H87.0001C87.6215 89.1667 88.2131 89.4335 88.6244 89.8994C89.0357 90.3653 89.2271 90.9854 89.15 91.6021L87.9 101.602L101.874 84.8334H87.0001C86.3786 84.8334 85.7871 84.5665 85.3758 84.1006C84.9645 83.6347 84.773 83.0146 84.8501 82.3979L86.1002 72.3977L72.126 89.1667Z" fill="url(#paint1_linear)"/>
<defs>
<linearGradient id="paint0_linear" x1="87" y1="36.5833" x2="87" y2="137.416" gradientUnits="userSpaceOnUse">
<stop offset="0.408076" stop-color="#0A192F"/>
<stop offset="1" stop-color="#3EFFF3"/>
</linearGradient>
<linearGradient id="paint1_linear" x1="87.0001" y1="63.1666" x2="87.0001" y2="110.833" gradientUnits="userSpaceOnUse">
<stop offset="0.408076" stop-color="#0A192F"/>
<stop offset="1" stop-color="#3EFFF3"/>
</linearGradient>
</defs>
</svg>
