<svg width="26" height="25" viewBox="0 0 30 45" fill="none" xmlns="http://www.w3.org/2000/svg">
<path fill-rule="evenodd" clip-rule="evenodd" d="M14.5611 1.32959C14.8441 1.22347 15.1559 1.22347 15.4389 1.32959L25.4389 5.07959C25.9268 5.26254 26.25 5.72894 26.25 6.25V15C26.25 19.308 23.3978 22.7504 20.8231 25.0032C19.5095 26.1526 18.2018 27.051 17.225 27.6616C16.7353 27.9676 16.3254 28.2034 16.0351 28.3641C15.8898 28.4445 15.7743 28.5063 15.6933 28.5488C15.6529 28.57 15.621 28.5865 15.5984 28.598L15.5716 28.6117L15.5635 28.6158L15.5608 28.6171C15.5604 28.6173 15.559 28.618 15 27.5C14.441 28.618 14.4406 28.6178 14.4402 28.6176L14.4365 28.6158L14.4284 28.6117L14.4016 28.598C14.379 28.5865 14.3471 28.57 14.3067 28.5488C14.2257 28.5063 14.1102 28.4445 13.9649 28.3641C13.6746 28.2034 13.2647 27.9676 12.775 27.6616C11.7982 27.051 10.4905 26.1526 9.17687 25.0032C6.60218 22.7504 3.75 19.308 3.75 15V6.25C3.75 5.72894 4.07322 5.26254 4.5611 5.07959L14.5611 1.32959ZM15 27.5L14.4402 28.6176C14.7921 28.7936 15.2071 28.794 15.559 28.618L15 27.5ZM15 26.0784C15.2395 25.9427 15.5459 25.7629 15.9 25.5416C16.7982 24.9802 17.9905 24.1599 19.1769 23.1218C21.6022 20.9996 23.75 18.192 23.75 15V7.11625L15 3.835L6.25 7.11625V15C6.25 18.192 8.39782 20.9996 10.8231 23.1218C12.0095 24.1599 13.2018 24.9802 14.1 25.5416C14.4541 25.7629 14.7605 25.9427 15 26.0784Z" fill="#3EFFF3"/>
<path fill-rule="evenodd" clip-rule="evenodd" d="M15.8261 8.5489C16.0668 8.65335 16.2097 8.90394 16.1772 9.16424L15.6693 13.2273H20.3181C20.5474 13.2273 20.756 13.3599 20.8532 13.5676C20.9505 13.7752 20.9188 14.0204 20.772 14.1965L14.863 21.2874C14.695 21.4889 14.4143 21.5556 14.1737 21.4512C13.9331 21.3467 13.7901 21.0961 13.8227 20.8358L14.3305 16.7728H9.68174C9.45245 16.7728 9.24387 16.6401 9.14662 16.4325C9.04936 16.2249 9.081 15.9797 9.22779 15.8036L15.1369 8.71265C15.3048 8.51113 15.5855 8.44445 15.8261 8.5489ZM10.9434 15.5909H14.9999C15.1694 15.5909 15.3307 15.6637 15.4429 15.7908C15.5551 15.9178 15.6073 16.087 15.5863 16.2551L15.2453 18.9825L19.0565 14.4091H14.9999C14.8304 14.4091 14.6691 14.3363 14.5569 14.2093C14.4448 14.0822 14.3926 13.9131 14.4136 13.7449L14.7545 11.0176L10.9434 15.5909Z" fill="#3EFFF3"/>
</svg>
